<!-- icon666.com - MILLIONS vector ICONS FREE --><svg id="Layer_1" enable-background="new 0 0 512 512" viewBox="0 0 512 512" xmlns="http://www.w3.org/2000/svg" xmlns:xlink="http://www.w3.org/1999/xlink"><linearGradient id="SVGID_1_" gradientUnits="userSpaceOnUse" x1="256" x2="256" y1="0" y2="512"><stop offset="0" stop-color="#01f1fe"></stop><stop offset="1" stop-color="#4fadfe"></stop></linearGradient><path d="m163.36 210.25h64.313v91.5h-64.313c-2.86 0-5.188-2.327-5.188-5.188v-81.125c.001-2.86 2.328-5.187 5.188-5.187zm88.313 96.89 102.153 64.578v-231.435l-102.153 64.577zm260.327-51.138c0 141.158-114.84 255.998-255.999 255.998-141.159 0-256.001-114.84-256.001-255.998 0-141.16 114.842-256.002 256.001-256.002s255.999 114.842 255.999 256.002zm-134.173-137.502c0-4.374-2.379-8.4-6.209-10.511-3.831-2.11-8.506-1.97-12.203.368l-123.217 77.893h-72.838c-16.094 0-29.188 13.094-29.188 29.188v81.125c0 16.094 13.093 29.188 29.188 29.188h72.838l123.216 77.893c1.954 1.235 4.181 1.857 6.413 1.857 1.99 0 3.984-.495 5.79-1.489 3.831-2.11 6.21-6.137 6.21-10.511z" fill="url(#SVGID_1_)"></path></svg>